<svg version="1.1" viewBox="0.0 0.0 867.7217847769028 242.2729658792651" fill="none" stroke="none" stroke-linecap="square" stroke-miterlimit="10" xmlns:xlink="http://www.w3.org/1999/xlink" xmlns="http://www.w3.org/2000/svg"><clipPath id="p.0"><path d="m0 0l867.7218 0l0 242.27296l-867.7218 0l0 -242.27296z" clip-rule="nonzero"/></clipPath><g clip-path="url(#p.0)"><path fill="#000000" fill-opacity="0.0" d="m0 0l867.7218 0l0 242.27296l-867.7218 0z" fill-rule="evenodd"/><path fill="#000000" d="m54.27276 79.799545l0 0c0 -13.492828 10.938103 -24.430935 24.430931 -24.430935l98.476715 0l0 0c6.479492 0 12.693588 2.573967 17.275284 7.155655c4.5816803 4.5816917 7.155655 10.795795 7.155655 17.27528l0 97.72081c0 13.492828 -10.93811 24.430939 -24.430939 24.430939l-98.476715 0c-13.492828 0 -24.430931 -10.93811 -24.430931 -24.430939z" fill-rule="evenodd"/><path stroke="#ffffff" stroke-width="2.0236220472440944" stroke-linejoin="round" stroke-linecap="butt" d="m54.27276 79.799545l0 0c0 -13.492828 10.938103 -24.430935 24.430931 -24.430935l98.476715 0l0 0c6.479492 0 12.693588 2.573967 17.275284 7.155655c4.5816803 4.5816917 7.155655 10.795795 7.155655 17.27528l0 97.72081c0 13.492828 -10.93811 24.430939 -24.430939 24.430939l-98.476715 0c-13.492828 0 -24.430931 -10.93811 -24.430931 -24.430939z" fill-rule="evenodd"/><g filter="url(#shadowFilter-p.1)"><use xlink:href="#p.1" transform="matrix(1.0 0.0 0.0 1.0 0.0 0.08314698162730637)"/></g><defs><filter id="shadowFilter-p.1" filterUnits="userSpaceOnUse"><feGaussianBlur in="SourceAlpha" stdDeviation="0.08314698" result="blur"/><feComponentTransfer in="blur" color-interpolation-filters="sRGB"><feFuncR type="linear" slope="0" intercept="0.0"/><feFuncG type="linear" slope="0" intercept="0.0"/><feFuncB type="linear" slope="0" intercept="0.0"/><feFuncA type="linear" slope="0.5" intercept="0"/></feComponentTransfer></filter></defs><g id="p.1"><path fill="#ffffff" d="m41.3558 65.463524l0 0c0 -13.50248 10.945923 -24.448402 24.448406 -24.448402l98.54145 0l0 0c6.4841156 0 12.702667 2.5758057 17.287628 7.1607704c4.584976 4.5849686 7.160782 10.803513 7.160782 17.287632l0 97.79069c0 13.502487 -10.945923 24.44841 -24.44841 24.44841l-98.54145 0c-13.502483 0 -24.448406 -10.945923 -24.448406 -24.44841z" fill-rule="evenodd"/><path stroke="#ffffff" stroke-width="0.7847769028871391" stroke-linejoin="round" stroke-linecap="butt" d="m41.3558 65.463524l0 0c0 -13.50248 10.945923 -24.448402 24.448406 -24.448402l98.54145 0l0 0c6.4841156 0 12.702667 2.5758057 17.287628 7.1607704c4.584976 4.5849686 7.160782 10.803513 7.160782 17.287632l0 97.79069c0 13.502487 -10.945923 24.44841 -24.44841 24.44841l-98.54145 0c-13.502483 0 -24.448406 -10.945923 -24.448406 -24.44841z" fill-rule="evenodd"/></g><path fill="#000000" fill-opacity="0.0" d="m41.355804 51.24769l147.43826 0l0 120.50898l-147.43826 0z" fill-rule="evenodd"/><path fill="#000000" d="m90.413864 147.67815q-13.71875 0 -21.96875 -6.125q-8.234375 -6.125 -9.59375 -17.296867l14.5 0q0.6875 5.6874924 5.484375 8.968742q4.8125 3.28125 12.265625 3.28125q6.078125 0 9.359375 -2.15625q3.296875 -2.15625 3.296875 -5.78125q0 -3.4374924 -1.96875 -5.5468674q-1.953125 -2.109375 -6.765625 -3.375l-13.140625 -3.625q-10.09375 -2.84375 -14.75 -7.796875q-4.65625 -4.953125 -4.65625 -12.40625q0 -6.375 3.28125 -11.03125q3.28125 -4.65625 9.265625 -7.15625q5.984375 -2.5 14.015625 -2.5q12.359375 0 19.703125 5.84375q7.359375 5.828125 8.34375 15.4375l-14.515625 0q-0.984375 -5.203125 -4.765625 -7.65625q-3.765625 -2.453125 -9.640625 -2.453125q-5.09375 0 -8.140625 1.96875q-3.046875 1.953125 -3.046875 5.296875q0 2.546875 1.671875 4.65625q1.671875 2.109375 6.96875 3.578125l13.140625 3.625q10.390625 2.84375 14.9375 7.796875q4.5625 4.953125 4.5625 12.5q0 10.593742 -7.359375 16.281242q-7.34375 5.671875 -20.484375 5.671875zm49.52025 -0.875l-19.71875 -49.999992l15.796875 0l15.390625 46.671867l-8.234375 0l15.296875 -46.671867l15.390625 0l-19.703125 49.999992l-14.21875 0z" fill-rule="nonzero"/><path fill="#000000" fill-opacity="0.0" d="m296.88715 15.860892l570.83466 0l0 171.84253l-570.83466 0z" fill-rule="evenodd"/><path fill="#000000" d="m360.32465 177.32275q-22.03125 0 -35.25 -9.828125q-13.203125 -9.84375 -15.40625 -27.78125l23.28125 0q1.09375 9.125 8.796875 14.40625q7.71875 5.265625 19.671875 5.265625q9.765625 0 15.03125 -3.453125q5.265625 -3.46875 5.265625 -9.296875q0 -5.5 -3.15625 -8.875q-3.140625 -3.390625 -10.84375 -5.4375l-21.078125 -5.8281174q-16.203125 -4.5625 -23.6875 -12.5q-7.46875 -7.953125 -7.46875 -19.90625q0 -10.21875 5.265625 -17.6875q5.28125 -7.484375 14.875 -11.484375q9.59375 -4.015625 22.5 -4.015625q19.828125 0 31.625 9.359375q11.796875 9.359375 13.375 24.78125l-23.296875 0q-1.5625 -8.34375 -7.625 -12.28125q-6.0625 -3.9375 -15.5 -3.9375q-8.171875 0 -13.0625 3.15625q-4.875 3.140625 -4.875 8.5q0 4.078125 2.671875 7.46875q2.6875 3.375 11.171875 5.734375l21.09375 5.828125q16.671875 4.5625 23.984375 12.515625q7.3125 7.9374924 7.3125 20.046867q0 17.0 -11.796875 26.125q-11.796875 9.125 -32.875 9.125zm61.67169 30.828125l22.1875 -49.078125l4.078125 -6.765625l20.78125 -56.640617l25.171875 0l-48.625 112.48437l-23.59375 0zm16.984375 -33.828125l-30.828125 -78.65624l25.484375 0l25.328125 71.73437l-19.984375 6.921875zm64.35104 1.578125l0 -113.28124l23.59372 0l0 113.28124l-23.59372 0zm64.35361 0l-31.625 -80.23437l25.328125 0l24.703125 74.89062l-13.21875 0l24.546875 -74.89062l24.703125 0l-31.625 80.23437l-22.8125 0zm62.138123 0l0 -80.23437l23.59375 0l0 80.23437l-23.59375 0zm-0.78125 -90.93749l0 -25.484375l25.171875 0l0 25.484375l-25.171875 0zm91.39984 90.93749q-0.9375 -3.46875 -1.328125 -7.390625q-0.390625 -3.9375 -0.390625 -9.125l-0.640625 0l0 -37.921867q0 -4.875 -3.234375 -7.625q-3.21875 -2.75 -9.5 -2.75q-5.984375 0 -9.53125 2.046875q-3.53125 2.03125 -4.640625 5.96875l-22.484375 0q1.5625 -10.859375 11.15625 -17.9375q9.609375 -7.078125 26.28125 -7.078125q17.3125 0 26.4375 7.71875q9.125 7.703125 9.125 22.171875l0 35.406242q0 3.921875 0.546875 7.9375q0.546875 4.015625 1.8125 8.578125l-23.609375 0zm-28.0 1.578125q-11.953125 0 -19.03125 -6.0625q-7.078125 -6.0625 -7.078125 -16.125q0 -11.171875 8.40625 -18.015625q8.421875 -6.84375 23.53125 -8.890625l23.4375 -3.2968674l0 13.687492l-19.515625 2.984375q-6.28125 0.9375 -9.28125 3.46875q-2.984375 2.515625 -2.984375 6.921875q0 3.921875 2.828125 5.96875q2.828125 2.046875 7.546875 2.046875q7.40625 0 12.59375 -4.0q5.1875 -4.015625 5.1875 -9.375l2.203125 12.59375q-3.453125 8.96875 -10.546875 13.53125q-7.078125 4.5625 -17.296875 4.5625zm67.33441 -1.578125l0 -80.23437l23.125 0l0 18.875l0.46875 0l0 61.359367l-23.59375 0zm55.859375 0l0 -49.718742q0 -6.609375 -3.390625 -9.90625q-3.375 -3.3125 -9.828125 -3.3125q-5.515625 0 -9.84375 2.53125q-4.3125 2.515625 -6.765625 6.921875q-2.4375 4.390625 -2.4375 10.374992l-2.03125 -19.343742q3.921875 -8.8125 11.546875 -14.078125q7.640625 -5.28125 18.8125 -5.28125q13.375 0 20.453125 7.484375q7.078125 7.46875 7.078125 20.046875l0 54.281242l-23.59375 0z" fill-rule="nonzero"/></g></svg>